# xmcd
#
# Track frame offsets: 
#        150
#        15985
#        32407
#        44645
#        66850
#        81412
#        100512
#        118145
#        135507
#        150847
#        165907
#        186222
#        201035
#        217067
#        237650
#
# Disc length: 3456 seconds
#
# Revision: 5
# Processed by: cddbd v1.5.2PL0 Copyright (c) Steve Scherf et al.
# Submitted via: ExactAudioCopy v0.99pb5
#
DISCID=c10d7e0f
DTITLE=Tony Bennett - Playin' With My Friends: Bennett Sings The Blues
DTITLE=[The Complete Collection 67]
DYEAR=2011
DGENRE=Vocal
TTITLE0=Alright, Okay, You Win [+Diana Krall]
TTITLE1=Everyday (I Have The Blues) [+Stevie Wonder]
TTITLE2=Don't Cry Baby
TTITLE3=Good Morning, Heartache [+Sheryl Crow]
TTITLE4=Let The Good Times Roll [+B.B. King]
TTITLE5=Evenin' [+Ray Charles]
TTITLE6=I Gotta Right To Sing The Blues [+Bonnie Raitt]
TTITLE7=Keep The Faith, Baby [+k.d. lang]
TTITLE8=Old Count Basie Is Gone (Old Piney Brown Is Gone)
TTITLE9=Blue And Sentimental [+Kay Starr]
TTITLE10=New York State Of Mind [+Billy Joel]
TTITLE11=Undecided Blues
TTITLE12=Blues In The Night
TTITLE13=Stormy Weather [+Natalie Cole]
TTITLE14=Playin' With My Friends [+various artists]
EXTD=YEAR: 2001
EXTT0=
EXTT1=
EXTT2=
EXTT3=
EXTT4=
EXTT5=
EXTT6=
EXTT7=
EXTT8=
EXTT9=
EXTT10=
EXTT11=
EXTT12=
EXTT13=
EXTT14=
PLAYORDER=
